<?xml version="1.0" encoding="utf-8"?>
<!-- Generator: Adobe Illustrator 16.0.3, SVG Export Plug-In . SVG Version: 6.00 Build 0)  -->
<!DOCTYPE svg PUBLIC "-//W3C//DTD SVG 1.1 Basic//EN" "http://www.w3.org/Graphics/SVG/1.1/DTD/svg11-basic.dtd">
<svg version="1.1" baseProfile="basic" id="Ebene_1"
	 xmlns="http://www.w3.org/2000/svg" xmlns:xlink="http://www.w3.org/1999/xlink" x="0px" y="0px" width="106px" height="53px"
	 viewBox="0 0 106 53" xml:space="preserve">
<rect fill="#E20074" x="63" y="25" width="11" height="11"/>
<rect fill="#E20074" y="25" width="11" height="11"/>
<path fill="#E20074" d="M25.806,47.516c0.207,0.369,0.467,0.725,0.777,1.025c0.311,0.275,0.658,0.529,1.072,0.73c0.4,0.201,0.844,0.316,1.291,0.416
	c0.246,0.096,0.518,0.148,0.816,0.154c0.311,0.01,0.666,0.053,1.029,0.1C31.155,49.992,31.567,50,32.022,50h1.41v3H8.416v-3H9.37
	h0.829c0.253,0,0.463-0.002,0.646-0.045c0.182-0.01,0.359-0.014,0.518-0.014c0.492-0.047,0.952-0.104,1.349-0.201
	c0.413-0.096,0.798-0.203,1.138-0.357c0.358-0.117,0.67-0.275,0.975-0.467c0.266-0.162,0.521-0.365,0.729-0.572
	c0.206-0.262,0.393-0.576,0.574-0.984c0.198-0.41,0.336-0.881,0.463-1.443c0.126-0.531,0.229-1.191,0.282-1.881
	c0.056-0.76,0.083-1.537,0.083-2.373V2.541c-1.063,0.047-2.069,0.155-3.004,0.357c-0.938,0.184-1.84,0.466-2.669,0.827
	C10.434,4.089,9.655,4.532,8.933,5.07C8.229,5.591,7.558,6.233,6.939,6.939C6.37,7.631,5.87,8.381,5.409,9.212
	c-0.461,0.825-0.853,1.757-1.193,2.796c-0.357,1.037-0.647,2.155-0.9,3.346c-0.239,1.192-0.42,2.489-0.547,3.887l-2.714-0.509
	L0.547,0h40.692l0.541,18.731l-2.701,0.509c-0.16-1.397-0.355-2.694-0.576-3.887c-0.217-1.19-0.516-2.309-0.873-3.346
	c-0.352-1.039-0.73-1.971-1.191-2.796c-0.455-0.831-0.949-1.581-1.541-2.272c-0.598-0.706-1.27-1.349-1.984-1.869
	c-0.717-0.538-1.494-0.981-2.311-1.345c-0.824-0.361-1.719-0.644-2.672-0.827c-0.967-0.202-1.98-0.311-3.039-0.357v39.121
	c0,0.516,0.004,0.988,0.025,1.445c0.025,0.422,0.049,0.84,0.1,1.238c0.035,0.371,0.082,0.725,0.117,1
	c0.039,0.307,0.105,0.57,0.193,0.826C25.435,46.686,25.601,47.146,25.806,47.516"/>
<rect fill="#E20074" x="31" y="25" width="11" height="11"/>
<rect fill="#E20074" x="95" y="25" width="11" height="11"/>
</svg>
